<svg xmlns="http://www.w3.org/2000/svg" version="1.1" xmlns:xlink="http://www.w3.org/1999/xlink" xmlns:svgjs="http://svgjs.dev/svgjs" width="1440" height="560" preserveAspectRatio="none" viewBox="0 0 1440 560">
    <g mask="url(#SvgjsMask1025)" fill="none">
        <rect width="1440" height="560" x="0" y="0" fill="rgba(173, 33, 59, 1)"></rect>
        <path d="M 0,214 C 57.6,194.8 172.8,120.4 288,118 C 403.2,115.6 460.8,199.2 576,202 C 691.2,204.8 748.8,128.6 864,132 C 979.2,135.4 1036.8,244.6 1152,219 C 1267.2,193.4 1382.4,47 1440,4L1440 560L0 560z" fill="rgba(255, 77, 109, 1)">
            <animate attributeName="d" dur="4s" repeatCount="indefinite" values="
                M 0,214 C 57.6,194.8 172.8,120.4 288,118 C 403.2,115.6 460.8,199.2 576,202 C 691.2,204.8 748.8,128.6 864,132 C 979.2,135.4 1036.8,244.6 1152,219 C 1267.2,193.4 1382.4,47 1440,4L1440 560L0 560z;
                M 0,220 C 60,200 170,140 290,140 C 410,140 470,220 590,220 C 710,220 750,140 870,150 C 990,160 1050,270 1170,240 C 1290,210 1400,60 1440,20L1440 560L0 560z;
                M 0,230 C 70,210 180,150 300,150 C 420,150 480,230 600,230 C 720,230 760,150 880,160 C 1000,170 1060,280 1180,250 C 1300,220 1410,70 1440,30L1440 560L0 560z;
                M 0,214 C 57.6,194.8 172.8,120.4 288,118 C 403.2,115.6 460.8,199.2 576,202 C 691.2,204.8 748.8,128.6 864,132 C 979.2,135.4 1036.8,244.6 1152,219 C 1267.2,193.4 1382.4,47 1440,4L1440 560L0 560z" />
        </path>
        <path d="M 0,475 C 96,451.2 288,348.8 480,356 C 672,363.2 768,514.6 960,511 C 1152,507.4 1344,372.6 1440,338L1440 560L0 560z" fill="rgba(173, 33, 59, 1)">
            <animate attributeName="d" dur="4s" repeatCount="indefinite" values="
                M 0,475 C 96,451.2 288,348.8 480,356 C 672,363.2 768,514.6 960,511 C 1152,507.4 1344,372.6 1440,338L1440 560L0 560z;
                M 0,470 C 100,450 290,350 490,360 C 690,370 770,520 960,530 C 1150,540 1330,400 1440,360L1440 560L0 560z;
                M 0,460 C 110,440 310,340 510,350 C 710,360 790,510 980,520 C 1170,530 1350,390 1440,350L1440 560L0 560z;
                M 0,475 C 96,451.2 288,348.8 480,356 C 672,363.2 768,514.6 960,511 C 1152,507.4 1344,372.6 1440,338L1440 560L0 560z" />
        </path>
    </g>
    <defs>
        <mask id="SvgjsMask1025">
            <rect width="1440" height="560" fill="#ffffff"></rect>
        </mask>
    </defs>
</svg>
